<svg width="56" height="49" viewBox="0 0 56 49" fill="none" xmlns="http://www.w3.org/2000/svg">
<rect width="56" height="49" rx="4" fill="black"/>
<path d="M37.6 14V11.5C37.6 10.837 37.3471 10.2011 36.8971 9.73223C36.447 9.26339 35.8365 9 35.2 9H18.4C17.7635 9 17.153 9.26339 16.7029 9.73223C16.2529 10.2011 16 10.837 16 11.5V21.5C16 22.163 16.2529 22.7989 16.7029 23.2678C17.153 23.7366 17.7635 24 18.4 24H35.2C35.8365 24 36.447 23.7366 36.8971 23.2678C37.3471 22.7989 37.6 22.163 37.6 21.5V19H40V14H37.6ZM24.4 22.75L26.8 17.8875L22 16.5L29.2 10.25L28 15.1125L32.8 16.5L24.4 22.75Z" fill="white"/>
<path d="M7.58022 39V34.736H7.56422L6.26822 35.936L5.84422 34.784L7.58022 33.16H8.98822V39H7.58022ZM11.4393 37.48H12.9913L12.0553 39.88H10.9353L11.4393 37.48ZM16.1685 36.816V34.808H16.1525L14.7685 36.8V36.816H16.1685ZM17.4725 36.816H18.3125V37.88H17.4725V39H16.1685V37.88H13.5685V36.816L16.1685 33.16H17.4725V36.816ZM23.0916 34.256H20.7636L20.7076 35.344H20.7236C20.9689 35.2373 21.2249 35.184 21.4916 35.184C22.0889 35.184 22.5503 35.344 22.8756 35.664C23.2009 35.984 23.3636 36.4347 23.3636 37.016C23.3636 38.392 22.5449 39.08 20.9076 39.08C20.3103 39.08 19.7503 38.968 19.2276 38.744L19.5076 37.664C20.0356 37.888 20.4836 38 20.8516 38C21.6356 38 22.0276 37.672 22.0276 37.016C22.0276 36.4827 21.7609 36.216 21.2276 36.216C20.9929 36.216 20.7609 36.3173 20.5316 36.52H19.3716L19.5316 33.16H23.0916V34.256ZM24.9347 33.888C25.4734 33.3493 26.1934 33.08 27.0947 33.08C27.9961 33.08 28.7134 33.3493 29.2467 33.888C29.7854 34.4267 30.0547 35.1573 30.0547 36.08C30.0547 37.0027 29.7854 37.7333 29.2467 38.272C28.7134 38.8107 27.9961 39.08 27.0947 39.08C26.1934 39.08 25.4734 38.8107 24.9347 38.272C24.4014 37.7333 24.1347 37.0027 24.1347 36.08C24.1347 35.1573 24.4014 34.4267 24.9347 33.888ZM25.9347 37.48C26.2121 37.8 26.5987 37.96 27.0947 37.96C27.5907 37.96 27.9747 37.8 28.2467 37.48C28.5241 37.16 28.6627 36.6933 28.6627 36.08C28.6627 35.4667 28.5241 35 28.2467 34.68C27.9747 34.36 27.5907 34.2 27.0947 34.2C26.5987 34.2 26.2121 34.36 25.9347 34.68C25.6627 35 25.5267 35.4667 25.5267 36.08C25.5267 36.6933 25.6627 37.16 25.9347 37.48ZM37.9932 35.424H37.9772L36.9532 37.664H35.7212L34.6972 35.424H34.6812V39H33.3932V33.16H34.7852L36.3292 36.6H36.3452L37.8892 33.16H39.3132V39H37.9932V35.424ZM40.126 39L42.102 33.16H43.542L45.51 39H44.07L43.726 37.736H41.878L41.542 39H40.126ZM42.158 36.704H43.454L42.814 34.336H42.798L42.158 36.704ZM49.7068 36.48H47.6828V39H46.3228V33.16H47.6828V35.448H49.7068V33.16H51.0668V39H49.7068V36.48Z" fill="white"/>
</svg>
