<svg width="56" height="49" viewBox="0 0 56 49" fill="none" xmlns="http://www.w3.org/2000/svg">
<rect width="56" height="49" rx="4" fill="black"/>
<path d="M22.7861 23C23.4149 23.0017 24.0377 22.8786 24.6186 22.6379C25.1994 22.3972 25.7267 22.0437 26.1699 21.5977L34.9697 12.7984L35.6465 13.4761L37 12.1226L28.8779 4L27.5244 5.35345L28.2021 6.03017L19.4023 14.8295C18.4987 15.7331 18 16.9353 18 18.2141C18 19.4929 18.4987 20.6951 19.4023 21.5977C19.8456 22.0437 20.3729 22.3972 20.9537 22.6379C21.5346 22.8786 22.1574 23.0017 22.7861 23ZM33.6162 11.4449L30.6756 14.3854H22.5545L29.5556 7.38458L33.6162 11.4449Z" fill="white"/>
<path d="M17.6974 33V28.736H17.6814L16.3854 29.936L15.9614 28.784L17.6974 27.16H19.1054V33H17.6974ZM21.4925 27.784C21.8765 27.3147 22.4605 27.08 23.2445 27.08C24.0285 27.08 24.6099 27.3147 24.9885 27.784C25.3725 28.2533 25.5645 29.0187 25.5645 30.08C25.5645 31.1413 25.3725 31.9067 24.9885 32.376C24.6099 32.8453 24.0285 33.08 23.2445 33.08C22.4605 33.08 21.8765 32.8453 21.4925 32.376C21.1139 31.9067 20.9245 31.1413 20.9245 30.08C20.9245 29.0187 21.1139 28.2533 21.4925 27.784ZM22.5325 31.608C22.6872 31.9013 22.9245 32.048 23.2445 32.048C23.5645 32.048 23.7992 31.9013 23.9485 31.608C24.1032 31.3147 24.1805 30.8053 24.1805 30.08C24.1805 29.3547 24.1032 28.8453 23.9485 28.552C23.7992 28.2587 23.5645 28.112 23.2445 28.112C22.9245 28.112 22.6872 28.2587 22.5325 28.552C22.3832 28.8453 22.3085 29.3547 22.3085 30.08C22.3085 30.8053 22.3832 31.3147 22.5325 31.608ZM28.86 28.84H30.02L30.044 29.4H30.06C30.3694 28.9733 30.7347 28.76 31.156 28.76C31.412 28.76 31.62 28.808 31.78 28.904C31.94 29 32.084 29.1653 32.212 29.4H32.228C32.6014 28.9733 33.02 28.76 33.484 28.76C33.9374 28.76 34.2654 28.8853 34.468 29.136C34.676 29.3867 34.78 29.8133 34.78 30.416V33H33.548V30.656C33.548 30.2827 33.5107 30.0347 33.436 29.912C33.3667 29.7893 33.236 29.728 33.044 29.728C32.8787 29.728 32.7374 29.816 32.62 29.992C32.5027 30.1627 32.444 30.384 32.444 30.656V33H31.212V30.656C31.212 30.2827 31.1774 30.0347 31.108 29.912C31.0387 29.7893 30.908 29.728 30.716 29.728C30.5507 29.728 30.4094 29.816 30.292 29.992C30.1747 30.1627 30.116 30.384 30.116 30.656V33H28.86V28.84ZM35.9975 33V27H37.3495V33H35.9975ZM11.4368 40.256V41.448H13.6528V42.48H11.4368V43.904H13.8128V45H10.0768V39.16H13.8128V40.256H11.4368ZM14.7555 43.192V42.168H17.4515V43.192H14.7555ZM20.0236 39.16V43.872H22.4876V45H18.6236V39.16H20.0236ZM23.6264 45V39.16H25.1224V45H23.6264ZM30.7156 44.568V44.584C31.0729 44.7653 31.4009 44.9973 31.6996 45.28C32.0036 45.5627 32.2436 45.8693 32.4196 46.2H30.9556C30.6729 45.7093 30.4222 45.4 30.2036 45.272C29.9902 45.144 29.6089 45.08 29.0596 45.08C28.1582 45.08 27.4382 44.8107 26.8996 44.272C26.3662 43.7333 26.0996 43.0027 26.0996 42.08C26.0996 41.1573 26.3662 40.4267 26.8996 39.888C27.4382 39.3493 28.1582 39.08 29.0596 39.08C29.9609 39.08 30.6782 39.3493 31.2116 39.888C31.7502 40.4267 32.0196 41.1573 32.0196 42.08C32.0196 42.6133 31.9049 43.0933 31.6756 43.52C31.4516 43.9467 31.1316 44.296 30.7156 44.568ZM27.8996 43.48C28.1769 43.8 28.5636 43.96 29.0596 43.96C29.5556 43.96 29.9396 43.8 30.2116 43.48C30.4889 43.16 30.6276 42.6933 30.6276 42.08C30.6276 41.4667 30.4889 41 30.2116 40.68C29.9396 40.36 29.5556 40.2 29.0596 40.2C28.5636 40.2 28.1769 40.36 27.8996 40.68C27.6276 41 27.4916 41.4667 27.4916 42.08C27.4916 42.6933 27.6276 43.16 27.8996 43.48ZM34.1306 39.16V42.704C34.1306 43.5573 34.4559 43.984 35.1066 43.984C35.7519 43.984 36.0746 43.5573 36.0746 42.704V39.16H37.4186V42.616C37.4186 43.4267 37.2186 44.04 36.8186 44.456C36.4186 44.872 35.8426 45.08 35.0906 45.08C34.3386 45.08 33.7599 44.872 33.3546 44.456C32.9546 44.04 32.7546 43.4267 32.7546 42.616V39.16H34.1306ZM38.6733 45V39.16H40.1693V45H38.6733ZM46.2824 42C46.2824 42.9813 46.0104 43.7413 45.4664 44.28C44.9278 44.8133 44.1678 45.08 43.1864 45.08C42.5944 45.08 42.0344 45.04 41.5064 44.96V39.2C42.0344 39.12 42.5944 39.08 43.1864 39.08C44.1678 39.08 44.9278 39.3387 45.4664 39.856C46.0104 40.368 46.2824 41.0827 46.2824 42ZM44.9864 42C44.9864 40.7627 44.4211 40.144 43.2904 40.144C43.1358 40.144 42.9864 40.16 42.8424 40.192V43.968C42.9864 44 43.1358 44.016 43.2904 44.016C44.4211 44.016 44.9864 43.344 44.9864 42Z" fill="white"/>
</svg>
