<svg width="56" height="49" viewBox="0 0 56 49" fill="none" xmlns="http://www.w3.org/2000/svg">
<rect width="56" height="49" rx="4" fill="black"/>
<path d="M37.6 14V11.5C37.6 10.837 37.3471 10.2011 36.8971 9.73223C36.447 9.26339 35.8365 9 35.2 9H18.4C17.7635 9 17.153 9.26339 16.7029 9.73223C16.2529 10.2011 16 10.837 16 11.5V21.5C16 22.163 16.2529 22.7989 16.7029 23.2678C17.153 23.7366 17.7635 24 18.4 24H35.2C35.8365 24 36.447 23.7366 36.8971 23.2678C37.3471 22.7989 37.6 22.163 37.6 21.5V19H40V14H37.6ZM24.4 22.75L26.8 17.8875L22 16.5L29.2 10.25L28 15.1125L32.8 16.5L24.4 22.75Z" fill="white"/>
<path d="M13.8103 34.256H11.4823L11.4263 35.344H11.4423C11.6877 35.2373 11.9437 35.184 12.2103 35.184C12.8077 35.184 13.269 35.344 13.5943 35.664C13.9197 35.984 14.0823 36.4347 14.0823 37.016C14.0823 38.392 13.2637 39.08 11.6263 39.08C11.029 39.08 10.469 38.968 9.94634 38.744L10.2263 37.664C10.7543 37.888 11.2023 38 11.5703 38C12.3543 38 12.7463 37.672 12.7463 37.016C12.7463 36.4827 12.4797 36.216 11.9463 36.216C11.7117 36.216 11.4797 36.3173 11.2503 36.52H10.0903L10.2503 33.16H13.8103V34.256ZM15.4535 33.784C15.8375 33.3147 16.4215 33.08 17.2055 33.08C17.9895 33.08 18.5708 33.3147 18.9495 33.784C19.3335 34.2533 19.5255 35.0187 19.5255 36.08C19.5255 37.1413 19.3335 37.9067 18.9495 38.376C18.5708 38.8453 17.9895 39.08 17.2055 39.08C16.4215 39.08 15.8375 38.8453 15.4535 38.376C15.0748 37.9067 14.8855 37.1413 14.8855 36.08C14.8855 35.0187 15.0748 34.2533 15.4535 33.784ZM16.4935 37.608C16.6481 37.9013 16.8855 38.048 17.2055 38.048C17.5255 38.048 17.7601 37.9013 17.9095 37.608C18.0641 37.3147 18.1415 36.8053 18.1415 36.08C18.1415 35.3547 18.0641 34.8453 17.9095 34.552C17.7601 34.2587 17.5255 34.112 17.2055 34.112C16.8855 34.112 16.6481 34.2587 16.4935 34.552C16.3441 34.8453 16.2695 35.3547 16.2695 36.08C16.2695 36.8053 16.3441 37.3147 16.4935 37.608ZM20.8566 33.888C21.3953 33.3493 22.1153 33.08 23.0166 33.08C23.9179 33.08 24.6353 33.3493 25.1686 33.888C25.7073 34.4267 25.9766 35.1573 25.9766 36.08C25.9766 37.0027 25.7073 37.7333 25.1686 38.272C24.6353 38.8107 23.9179 39.08 23.0166 39.08C22.1153 39.08 21.3953 38.8107 20.8566 38.272C20.3233 37.7333 20.0566 37.0027 20.0566 36.08C20.0566 35.1573 20.3233 34.4267 20.8566 33.888ZM21.8566 37.48C22.1339 37.8 22.5206 37.96 23.0166 37.96C23.5126 37.96 23.8966 37.8 24.1686 37.48C24.4459 37.16 24.5846 36.6933 24.5846 36.08C24.5846 35.4667 24.4459 35 24.1686 34.68C23.8966 34.36 23.5126 34.2 23.0166 34.2C22.5206 34.2 22.1339 34.36 21.8566 34.68C21.5846 35 21.4486 35.4667 21.4486 36.08C21.4486 36.6933 21.5846 37.16 21.8566 37.48ZM33.915 35.424H33.899L32.875 37.664H31.643L30.619 35.424H30.603V39H29.315V33.16H30.707L32.251 36.6H32.267L33.811 33.16H35.235V39H33.915V35.424ZM36.0478 39L38.0238 33.16H39.4638L41.4318 39H39.9918L39.6478 37.736H37.7998L37.4638 39H36.0478ZM38.0798 36.704H39.3758L38.7358 34.336H38.7198L38.0798 36.704ZM45.6287 36.48H43.6047V39H42.2447V33.16H43.6047V35.448H45.6287V33.16H46.9887V39H45.6287V36.48Z" fill="white"/>
</svg>
