<svg width="56" height="49" viewBox="0 0 56 49" fill="none" xmlns="http://www.w3.org/2000/svg">
<rect width="56" height="49" rx="4" fill="black"/>
<path d="M23 14.5H25.3333V19.1667H23V14.5ZM23 20.3333H25.3333V22.6667H23V20.3333ZM26.5 16.8333H28.8333V21.5H26.5V16.8333ZM26.5 22.6667H28.8333V25H26.5V22.6667ZM30 14.5H32.3333V19.1667H30V14.5ZM30 20.3333H32.3333V22.6667H30V20.3333Z" fill="white"/>
<path d="M35.768 11.1307C35.2582 7.115 31.82 4 27.6667 4C24.4513 4 21.6583 5.8795 20.3832 8.84167C17.8772 9.59067 16 11.9555 16 14.5C16 17.7165 18.6168 20.3333 21.8333 20.3333V18C19.9037 18 18.3333 16.4297 18.3333 14.5C18.3333 12.8632 19.7322 11.2847 21.4518 10.9825L22.1297 10.8623L22.3537 10.2102C23.1738 7.8185 25.2108 6.33333 27.6667 6.33333C30.8832 6.33333 33.5 8.95017 33.5 12.1667V13.3333H34.6667C35.9535 13.3333 37 14.3798 37 15.6667C37 16.9535 35.9535 18 34.6667 18H33.5V20.3333H34.6667C37.2403 20.3333 39.3333 18.2403 39.3333 15.6667C39.332 14.6208 38.98 13.6055 38.3336 12.7832C37.6873 11.961 36.784 11.3791 35.768 11.1307Z" fill="white"/>
<rect width="56" height="49" rx="4" fill="black"/>
<path d="M23 13.5H25.3333V18.1667H23V13.5ZM23 19.3333H25.3333V21.6667H23V19.3333ZM26.5 15.8333H28.8333V20.5H26.5V15.8333ZM26.5 21.6667H28.8333V24H26.5V21.6667ZM30 13.5H32.3333V18.1667H30V13.5ZM30 19.3333H32.3333V21.6667H30V19.3333Z" fill="white"/>
<path d="M35.768 10.1307C35.2582 6.115 31.82 3 27.6667 3C24.4513 3 21.6583 4.8795 20.3832 7.84167C17.8772 8.59067 16 10.9555 16 13.5C16 16.7165 18.6168 19.3333 21.8333 19.3333V17C19.9037 17 18.3333 15.4297 18.3333 13.5C18.3333 11.8632 19.7322 10.2847 21.4518 9.9825L22.1297 9.86233L22.3537 9.21017C23.1738 6.8185 25.2108 5.33333 27.6667 5.33333C30.8832 5.33333 33.5 7.95017 33.5 11.1667V12.3333H34.6667C35.9535 12.3333 37 13.3798 37 14.6667C37 15.9535 35.9535 17 34.6667 17H33.5V19.3333H34.6667C37.2403 19.3333 39.3333 17.2403 39.3333 14.6667C39.332 13.6208 38.98 12.6055 38.3336 11.7832C37.6873 10.961 36.784 10.3791 35.768 10.1307Z" fill="white"/>
<path d="M22.2353 29.424H22.2193L21.1953 31.664H19.9633L18.9393 29.424H18.9233V33H17.6353V27.16H19.0273L20.5713 30.6H20.5873L22.1313 27.16H23.5553V33H22.2353V29.424ZM26.1282 28.256V29.448H28.3442V30.48H26.1282V31.904H28.5042V33H24.7682V27.16H28.5042V28.256H26.1282ZM33.221 28.52C32.7144 28.2693 32.181 28.144 31.621 28.144C31.3437 28.144 31.133 28.1973 30.989 28.304C30.845 28.4107 30.773 28.5547 30.773 28.736C30.773 29.0347 30.997 29.248 31.445 29.376C32.2397 29.5947 32.797 29.856 33.117 30.16C33.4424 30.464 33.605 30.856 33.605 31.336C33.605 31.9013 33.413 32.3333 33.029 32.632C32.645 32.9307 32.077 33.08 31.325 33.08C30.989 33.08 30.6397 33.0293 30.277 32.928C29.9144 32.8213 29.6104 32.6853 29.365 32.52L29.685 31.456C30.229 31.8293 30.7944 32.016 31.381 32.016C31.6584 32.016 31.8664 31.96 32.005 31.848C32.149 31.7307 32.221 31.568 32.221 31.36C32.221 31.1893 32.1624 31.0507 32.045 30.944C31.933 30.8373 31.733 30.7413 31.445 30.656C30.7144 30.4427 30.189 30.184 29.869 29.88C29.549 29.5707 29.389 29.1893 29.389 28.736C29.389 28.2293 29.5784 27.8267 29.957 27.528C30.341 27.2293 30.877 27.08 31.565 27.08C32.2957 27.08 32.9304 27.208 33.469 27.464L33.221 28.52ZM38.0037 30.48H35.9797V33H34.6197V27.16H35.9797V29.448H38.0037V27.16H39.3637V33H38.0037V30.48ZM14.1785 40.176C13.6185 40.176 13.1758 40.344 12.8505 40.68C12.5305 41.016 12.3705 41.4827 12.3705 42.08C12.3705 42.6667 12.5385 43.1307 12.8745 43.472C13.2105 43.8133 13.6451 43.984 14.1785 43.984C14.6425 43.984 15.1011 43.8373 15.5545 43.544L15.9385 44.536C15.4051 44.8987 14.7731 45.08 14.0425 45.08C13.1145 45.08 12.3705 44.8107 11.8105 44.272C11.2558 43.7333 10.9785 43.0027 10.9785 42.08C10.9785 41.1467 11.2478 40.4133 11.7865 39.88C12.3305 39.3467 13.0825 39.08 14.0425 39.08C14.7731 39.08 15.4051 39.2613 15.9385 39.624L15.5545 40.616C15.1011 40.3227 14.6425 40.176 14.1785 40.176ZM17.2785 39.888C17.8171 39.3493 18.5371 39.08 19.4385 39.08C20.3398 39.08 21.0571 39.3493 21.5905 39.888C22.1291 40.4267 22.3985 41.1573 22.3985 42.08C22.3985 43.0027 22.1291 43.7333 21.5905 44.272C21.0571 44.8107 20.3398 45.08 19.4385 45.08C18.5371 45.08 17.8171 44.8107 17.2785 44.272C16.7451 43.7333 16.4785 43.0027 16.4785 42.08C16.4785 41.1573 16.7451 40.4267 17.2785 39.888ZM18.2785 43.48C18.5558 43.8 18.9425 43.96 19.4385 43.96C19.9345 43.96 20.3185 43.8 20.5905 43.48C20.8678 43.16 21.0065 42.6933 21.0065 42.08C21.0065 41.4667 20.8678 41 20.5905 40.68C20.3185 40.36 19.9345 40.2 19.4385 40.2C18.9425 40.2 18.5558 40.36 18.2785 40.68C18.0065 41 17.8705 41.4667 17.8705 42.08C17.8705 42.6933 18.0065 43.16 18.2785 43.48ZM23.3725 45V39.16H24.8685V45H23.3725ZM27.6057 39.16V43.872H30.0697V45H26.2057V39.16H27.6057ZM35.2208 45V40.736H35.2048L33.9088 41.936L33.4848 40.784L35.2208 39.16H36.6288V45H35.2208ZM38.856 45V43.48H40.376V45H38.856ZM41.9144 39.784C42.2984 39.3147 42.8824 39.08 43.6664 39.08C44.4504 39.08 45.0317 39.3147 45.4104 39.784C45.7944 40.2533 45.9864 41.0187 45.9864 42.08C45.9864 43.1413 45.7944 43.9067 45.4104 44.376C45.0317 44.8453 44.4504 45.08 43.6664 45.08C42.8824 45.08 42.2984 44.8453 41.9144 44.376C41.5357 43.9067 41.3464 43.1413 41.3464 42.08C41.3464 41.0187 41.5357 40.2533 41.9144 39.784ZM42.9544 43.608C43.1091 43.9013 43.3464 44.048 43.6664 44.048C43.9864 44.048 44.2211 43.9013 44.3704 43.608C44.5251 43.3147 44.6024 42.8053 44.6024 42.08C44.6024 41.3547 44.5251 40.8453 44.3704 40.552C44.2211 40.2587 43.9864 40.112 43.6664 40.112C43.3464 40.112 43.1091 40.2587 42.9544 40.552C42.8051 40.8453 42.7304 41.3547 42.7304 42.08C42.7304 42.8053 42.8051 43.3147 42.9544 43.608Z" fill="white"/>
</svg>
