<svg width="56" height="49" viewBox="0 0 56 49" fill="none" xmlns="http://www.w3.org/2000/svg">
<path d="M0 4C0 1.79086 1.79086 0 4 0H52C54.2091 0 56 1.79086 56 4V45C56 47.2091 54.2091 49 52 49H4C1.79086 49 0 47.2091 0 45V4Z" fill="black"/>
<rect x="13" y="10" width="30" height="10" rx="5" stroke="white" stroke-width="2"/>
<rect x="20.5" y="14.5" width="14" height="1" rx="0.5" stroke="white"/>
<path d="M17.8996 29.16V30.288H16.2756V35H14.8836V30.288H13.2596V29.16H17.8996ZM20.0247 29.16L21.1607 31.664H21.1767L22.3127 29.16H23.8327L21.8487 32.76V35H20.4487V32.76L18.4727 29.16H20.0247ZM24.608 29.2C25.1627 29.12 25.7493 29.08 26.368 29.08C28.0747 29.08 28.928 29.7147 28.928 30.984C28.928 31.672 28.728 32.1947 28.328 32.552C27.9333 32.904 27.352 33.08 26.584 33.08C26.392 33.08 26.1787 33.0693 25.944 33.048V35H24.608V29.2ZM25.944 32.04C26.1147 32.0667 26.2827 32.08 26.448 32.08C26.832 32.08 27.128 31.992 27.336 31.816C27.5493 31.6347 27.656 31.384 27.656 31.064C27.656 30.4293 27.2533 30.112 26.448 30.112C26.272 30.112 26.104 30.128 25.944 30.16V32.04ZM31.1008 30.256V31.448H33.3168V32.48H31.1008V33.904H33.4768V35H29.7408V29.16H33.4768V30.256H31.1008ZM39.9402 30.176C39.3802 30.176 38.9375 30.344 38.6122 30.68C38.2922 31.016 38.1322 31.4827 38.1322 32.08C38.1322 32.6667 38.3002 33.1307 38.6362 33.472C38.9722 33.8133 39.4069 33.984 39.9402 33.984C40.4042 33.984 40.8629 33.8373 41.3162 33.544L41.7002 34.536C41.1669 34.8987 40.5349 35.08 39.8042 35.08C38.8762 35.08 38.1322 34.8107 37.5722 34.272C37.0175 33.7333 36.7402 33.0027 36.7402 32.08C36.7402 31.1467 37.0095 30.4133 37.5482 29.88C38.0922 29.3467 38.8442 29.08 39.8042 29.08C40.5349 29.08 41.1669 29.2613 41.7002 29.624L41.3162 30.616C40.8629 30.3227 40.4042 30.176 39.9402 30.176Z" fill="white"/>
</svg>
