<svg width="56" height="49" viewBox="0 0 56 49" fill="none" xmlns="http://www.w3.org/2000/svg">
<rect width="56" height="49" rx="4" fill="black"/>
<path d="M37.6 14V11.5C37.6 10.837 37.3471 10.2011 36.8971 9.73223C36.447 9.26339 35.8365 9 35.2 9H18.4C17.7635 9 17.153 9.26339 16.7029 9.73223C16.2529 10.2011 16 10.837 16 11.5V21.5C16 22.163 16.2529 22.7989 16.7029 23.2678C17.153 23.7366 17.7635 24 18.4 24H35.2C35.8365 24 36.447 23.7366 36.8971 23.2678C37.3471 22.7989 37.6 22.163 37.6 21.5V19H40V14H37.6ZM24.4 22.75L26.8 17.8875L22 16.5L29.2 10.25L28 15.1125L32.8 16.5L24.4 22.75Z" fill="white"/>
<path d="M13.0743 33.08L13.3143 34.176C12.7543 34.192 12.3063 34.2987 11.9703 34.496C11.6343 34.688 11.381 34.9787 11.2103 35.368L11.2183 35.376C11.5597 35.168 11.9357 35.064 12.3463 35.064C12.965 35.064 13.4397 35.2293 13.7703 35.56C14.101 35.8853 14.2663 36.3653 14.2663 37C14.2663 37.6293 14.0583 38.1333 13.6423 38.512C13.2317 38.8907 12.6903 39.08 12.0183 39.08C11.3197 39.08 10.7677 38.88 10.3623 38.48C9.96234 38.08 9.76234 37.5013 9.76234 36.744C9.76234 35.6293 10.0583 34.7467 10.6503 34.096C11.2423 33.44 12.0503 33.1013 13.0743 33.08ZM12.0183 38.096C12.317 38.096 12.549 38.0027 12.7143 37.816C12.8797 37.6293 12.9623 37.3573 12.9623 37C12.9623 36.68 12.8797 36.432 12.7143 36.256C12.549 36.0747 12.317 35.984 12.0183 35.984C11.7303 35.984 11.501 36.0747 11.3303 36.256C11.1597 36.4373 11.0743 36.6853 11.0743 37C11.0743 37.352 11.157 37.624 11.3223 37.816C11.493 38.0027 11.725 38.096 12.0183 38.096ZM19.0135 34.256H16.6855L16.6295 35.344H16.6455C16.8908 35.2373 17.1468 35.184 17.4135 35.184C18.0108 35.184 18.4721 35.344 18.7975 35.664C19.1228 35.984 19.2855 36.4347 19.2855 37.016C19.2855 38.392 18.4668 39.08 16.8295 39.08C16.2321 39.08 15.6721 38.968 15.1495 38.744L15.4295 37.664C15.9575 37.888 16.4055 38 16.7735 38C17.5575 38 17.9495 37.672 17.9495 37.016C17.9495 36.4827 17.6828 36.216 17.1495 36.216C16.9148 36.216 16.6828 36.3173 16.4535 36.52H15.2935L15.4535 33.16H19.0135V34.256ZM20.8566 33.888C21.3953 33.3493 22.1153 33.08 23.0166 33.08C23.9179 33.08 24.6353 33.3493 25.1686 33.888C25.7073 34.4267 25.9766 35.1573 25.9766 36.08C25.9766 37.0027 25.7073 37.7333 25.1686 38.272C24.6353 38.8107 23.9179 39.08 23.0166 39.08C22.1153 39.08 21.3953 38.8107 20.8566 38.272C20.3233 37.7333 20.0566 37.0027 20.0566 36.08C20.0566 35.1573 20.3233 34.4267 20.8566 33.888ZM21.8566 37.48C22.1339 37.8 22.5206 37.96 23.0166 37.96C23.5126 37.96 23.8966 37.8 24.1686 37.48C24.4459 37.16 24.5846 36.6933 24.5846 36.08C24.5846 35.4667 24.4459 35 24.1686 34.68C23.8966 34.36 23.5126 34.2 23.0166 34.2C22.5206 34.2 22.1339 34.36 21.8566 34.68C21.5846 35 21.4486 35.4667 21.4486 36.08C21.4486 36.6933 21.5846 37.16 21.8566 37.48ZM33.915 35.424H33.899L32.875 37.664H31.643L30.619 35.424H30.603V39H29.315V33.16H30.707L32.251 36.6H32.267L33.811 33.16H35.235V39H33.915V35.424ZM36.0478 39L38.0238 33.16H39.4638L41.4318 39H39.9918L39.6478 37.736H37.7998L37.4638 39H36.0478ZM38.0798 36.704H39.3758L38.7358 34.336H38.7198L38.0798 36.704ZM45.6287 36.48H43.6047V39H42.2447V33.16H43.6047V35.448H45.6287V33.16H46.9887V39H45.6287V36.48Z" fill="white"/>
</svg>
