<svg width="56" height="49" viewBox="0 0 56 49" fill="none" xmlns="http://www.w3.org/2000/svg">
<rect width="56" height="49" rx="4" fill="black"/>
<path d="M29 7.5C29 5.57 27.43 4 25.5 4C23.466 4 22.25 5.525 22.25 7H24.25C24.25 6.585 24.638 6 25.5 6C26.327 6 27 6.673 27 7.5C27 8.327 26.327 9 25.5 9H18V11H25.5C27.43 11 29 9.43 29 7.5ZM31.5 17H24V19H31.5C32.327 19 33 19.673 33 20.5C33 21.327 32.327 22 31.5 22C30.638 22 30.25 21.415 30.25 21H28.25C28.25 22.475 29.466 24 31.5 24C33.43 24 35 22.43 35 20.5C35 18.57 33.43 17 31.5 17Z" fill="white"/>
<path d="M34 7C31.794 7 30 8.794 30 11H32C32 9.897 32.897 9 34 9C35.103 9 36 9.897 36 11C36 12.103 35.103 13 34 13H18V15H34C36.206 15 38 13.206 38 11C38 8.794 36.206 7 34 7ZM18 17H22V19H18V17Z" fill="white"/>
<rect width="56" height="49" rx="4" fill="black"/>
<path d="M29 7.5C29 5.57 27.43 4 25.5 4C23.466 4 22.25 5.525 22.25 7H24.25C24.25 6.585 24.638 6 25.5 6C26.327 6 27 6.673 27 7.5C27 8.327 26.327 9 25.5 9H18V11H25.5C27.43 11 29 9.43 29 7.5ZM31.5 17H24V19H31.5C32.327 19 33 19.673 33 20.5C33 21.327 32.327 22 31.5 22C30.638 22 30.25 21.415 30.25 21H28.25C28.25 22.475 29.466 24 31.5 24C33.43 24 35 22.43 35 20.5C35 18.57 33.43 17 31.5 17Z" fill="white"/>
<path d="M34 7C31.794 7 30 8.794 30 11H32C32 9.897 32.897 9 34 9C35.103 9 36 9.897 36 11C36 12.103 35.103 13 34 13H18V15H34C36.206 15 38 13.206 38 11C38 8.794 36.206 7 34 7ZM18 17H22V19H18V17Z" fill="white"/>
<path d="M16.6412 28.504C17.0199 28.2213 17.5452 28.08 18.2172 28.08C18.8892 28.08 19.4145 28.2213 19.7932 28.504C20.1719 28.7813 20.3612 29.1387 20.3612 29.576C20.3612 30.0827 20.0305 30.504 19.3692 30.84V30.856C20.1479 31.176 20.5372 31.6907 20.5372 32.4C20.5372 32.912 20.3319 33.32 19.9212 33.624C19.5159 33.928 18.9479 34.08 18.2172 34.08C17.4865 34.08 16.9159 33.928 16.5052 33.624C16.0999 33.32 15.8972 32.912 15.8972 32.4C15.8972 31.8133 16.2679 31.3493 17.0092 31.008V30.992C16.3852 30.6453 16.0732 30.1733 16.0732 29.576C16.0732 29.1387 16.2625 28.7813 16.6412 28.504ZM18.2732 30.496C18.5665 30.3893 18.7745 30.272 18.8972 30.144C19.0199 30.016 19.0812 29.8693 19.0812 29.704C19.0812 29.5067 19.0039 29.3467 18.8492 29.224C18.6945 29.096 18.4839 29.032 18.2172 29.032C17.9559 29.032 17.7479 29.096 17.5932 29.224C17.4439 29.3467 17.3692 29.5067 17.3692 29.704C17.3692 29.8747 17.4359 30.024 17.5692 30.152C17.7079 30.28 17.9425 30.3947 18.2732 30.496ZM18.0812 31.424C17.7612 31.552 17.5372 31.688 17.4092 31.832C17.2812 31.976 17.2172 32.144 17.2172 32.336C17.2172 32.5653 17.3105 32.7547 17.4972 32.904C17.6839 33.0533 17.9239 33.128 18.2172 33.128C18.5105 33.128 18.7479 33.0533 18.9292 32.904C19.1159 32.7547 19.2092 32.5653 19.2092 32.336C19.2092 32.1227 19.1345 31.952 18.9852 31.824C18.8359 31.696 18.5345 31.5627 18.0812 31.424ZM21.7323 32.48H23.2843L22.3483 34.88H21.2283L21.7323 32.48ZM24.6214 28.784C25.0054 28.3147 25.5894 28.08 26.3734 28.08C27.1574 28.08 27.7388 28.3147 28.1174 28.784C28.5014 29.2533 28.6934 30.0187 28.6934 31.08C28.6934 32.1413 28.5014 32.9067 28.1174 33.376C27.7388 33.8453 27.1574 34.08 26.3734 34.08C25.5894 34.08 25.0054 33.8453 24.6214 33.376C24.2428 32.9067 24.0534 32.1413 24.0534 31.08C24.0534 30.0187 24.2428 29.2533 24.6214 28.784ZM25.6614 32.608C25.8161 32.9013 26.0534 33.048 26.3734 33.048C26.6934 33.048 26.9281 32.9013 27.0774 32.608C27.2321 32.3147 27.3094 31.8053 27.3094 31.08C27.3094 30.3547 27.2321 29.8453 27.0774 29.552C26.9281 29.2587 26.6934 29.112 26.3734 29.112C26.0534 29.112 25.8161 29.2587 25.6614 29.552C25.5121 29.8453 25.4374 30.3547 25.4374 31.08C25.4374 31.8053 25.5121 32.3147 25.6614 32.608ZM29.8246 28.784C30.2086 28.3147 30.7926 28.08 31.5766 28.08C32.3606 28.08 32.9419 28.3147 33.3206 28.784C33.7046 29.2533 33.8966 30.0187 33.8966 31.08C33.8966 32.1413 33.7046 32.9067 33.3206 33.376C32.9419 33.8453 32.3606 34.08 31.5766 34.08C30.7926 34.08 30.2086 33.8453 29.8246 33.376C29.4459 32.9067 29.2566 32.1413 29.2566 31.08C29.2566 30.0187 29.4459 29.2533 29.8246 28.784ZM30.8646 32.608C31.0192 32.9013 31.2566 33.048 31.5766 33.048C31.8966 33.048 32.1312 32.9013 32.2806 32.608C32.4352 32.3147 32.5126 31.8053 32.5126 31.08C32.5126 30.3547 32.4352 29.8453 32.2806 29.552C32.1312 29.2587 31.8966 29.112 31.5766 29.112C31.2566 29.112 31.0192 29.2587 30.8646 29.552C30.7152 29.8453 30.6406 30.3547 30.6406 31.08C30.6406 31.8053 30.7152 32.3147 30.8646 32.608ZM35.0277 28.784C35.4117 28.3147 35.9957 28.08 36.7797 28.08C37.5637 28.08 38.145 28.3147 38.5237 28.784C38.9077 29.2533 39.0997 30.0187 39.0997 31.08C39.0997 32.1413 38.9077 32.9067 38.5237 33.376C38.145 33.8453 37.5637 34.08 36.7797 34.08C35.9957 34.08 35.4117 33.8453 35.0277 33.376C34.649 32.9067 34.4597 32.1413 34.4597 31.08C34.4597 30.0187 34.649 29.2533 35.0277 28.784ZM36.0677 32.608C36.2224 32.9013 36.4597 33.048 36.7797 33.048C37.0997 33.048 37.3344 32.9013 37.4837 32.608C37.6384 32.3147 37.7157 31.8053 37.7157 31.08C37.7157 30.3547 37.6384 29.8453 37.4837 29.552C37.3344 29.2587 37.0997 29.112 36.7797 29.112C36.4597 29.112 36.2224 29.2587 36.0677 29.552C35.9184 29.8453 35.8437 30.3547 35.8437 31.08C35.8437 31.8053 35.9184 32.3147 36.0677 32.608ZM22.7811 43.48H20.7571V46H19.3971V40.16H20.7571V42.448H22.7811V40.16H24.1411V46H22.7811V43.48ZM25.478 41.04V40H26.83V41.04H25.478ZM25.478 46V41.84H26.83V46H25.478ZM30.0427 42H31.4027V42.904H30.0427V44.4C30.0427 44.688 30.0774 44.88 30.1467 44.976C30.216 45.072 30.3414 45.12 30.5227 45.12C30.752 45.12 30.992 45.0773 31.2427 44.992L31.3867 45.92C31.008 46.0267 30.6187 46.08 30.2187 46.08C29.7067 46.08 29.3307 45.9653 29.0907 45.736C28.856 45.5067 28.7387 45.1333 28.7387 44.616V42.904H27.8827V42H28.7387V40.48H30.0427V42ZM35.4996 42.968C35.0462 42.7813 34.6009 42.688 34.1636 42.688C33.9182 42.688 33.7449 42.7173 33.6436 42.776C33.5476 42.8293 33.4996 42.912 33.4996 43.024C33.4996 43.1307 33.5422 43.216 33.6276 43.28C33.7182 43.3387 33.8756 43.384 34.0996 43.416C34.7236 43.496 35.1689 43.648 35.4356 43.872C35.7076 44.096 35.8436 44.4053 35.8436 44.8C35.8436 45.1947 35.6889 45.5067 35.3796 45.736C35.0756 45.9653 34.6356 46.08 34.0596 46.08C33.3822 46.08 32.7689 45.9467 32.2196 45.68L32.4596 44.752C32.9182 45.0133 33.4169 45.144 33.9556 45.144C34.3609 45.144 34.5636 45.0213 34.5636 44.776C34.5636 44.6693 34.5236 44.5893 34.4436 44.536C34.3689 44.4827 34.2089 44.4373 33.9636 44.4C33.3502 44.304 32.9102 44.144 32.6436 43.92C32.3769 43.6907 32.2436 43.384 32.2436 43C32.2436 42.6213 32.3956 42.32 32.6996 42.096C33.0089 41.872 33.4622 41.76 34.0596 41.76C34.6409 41.76 35.2009 41.8587 35.7396 42.056L35.4996 42.968Z" fill="white"/>
</svg>
